<?xml version="1.0" encoding="utf-8"?>
<!-- Generator: Adobe Illustrator 13.0.0, SVG Export Plug-In . SVG Version: 6.00 Build 14948)  -->
<!DOCTYPE svg PUBLIC "-//W3C//DTD SVG 1.1//EN" "http://www.w3.org/Graphics/SVG/1.1/DTD/svg11.dtd">
<svg version="1.1" id="Layer_1" xmlns="http://www.w3.org/2000/svg" xmlns:xlink="http://www.w3.org/1999/xlink" x="0px" y="0px"
	 width="792px" height="612px" viewBox="0 0 792 612" enable-background="new 0 0 792 612" xml:space="preserve">
<g>
	<g>
		<path fill="#22EEAA" d="M695.491,248.702L405.394,36.298c-5.594-4.095-13.193-4.095-18.785,0l-290.1,212.404
			c-7.085,5.188-8.625,15.139-3.437,22.224c5.189,7.086,15.14,8.623,22.225,3.437L396,68.835l280.703,205.526
			c2.831,2.074,6.12,3.072,9.381,3.072c4.896,0,9.728-2.253,12.843-6.508C704.117,263.84,702.577,253.89,695.491,248.702z"/>
	</g>
</g>
<g>
	<g>
		<path fill="#22EEAA" d="M618.622,277.961c-8.78,0-15.901,7.12-15.901,15.901v253.106H475.514V408.808
			c0-43.845-35.671-79.513-79.513-79.513s-79.512,35.671-79.512,79.513v138.163H189.28V293.864c0-8.782-7.121-15.901-15.901-15.901
			s-15.901,7.119-15.901,15.901v269.009c0,8.781,7.121,15.9,15.901,15.9h159.012c8.362,0,15.205-6.46,15.839-14.662
			c0.038-0.372,0.062-0.778,0.062-1.238V408.809c0-26.308,21.402-47.709,47.71-47.709s47.71,21.402,47.71,47.709v154.064
			c0,0.457,0.023,0.856,0.063,1.224c0.626,8.208,7.472,14.677,15.839,14.677h159.011c8.782,0,15.901-7.119,15.901-15.9V293.864
			C634.523,285.081,627.404,277.961,618.622,277.961z"/>
	</g>
</g>
</svg>
