<?xml version="1.0" encoding="utf-8"?>
<!-- Generator: Adobe Illustrator 13.0.0, SVG Export Plug-In . SVG Version: 6.00 Build 14948)  -->
<!DOCTYPE svg PUBLIC "-//W3C//DTD SVG 1.1//EN" "http://www.w3.org/Graphics/SVG/1.1/DTD/svg11.dtd">
<svg version="1.1" id="Layer_1" xmlns="http://www.w3.org/2000/svg" xmlns:xlink="http://www.w3.org/1999/xlink" x="0px" y="0px"
	 width="792px" height="612px" viewBox="0 0 792 612" enable-background="new 0 0 792 612" xml:space="preserve">
<g>
	<g>
		<path fill="#22EEAA" d="M604.553,0H249.735c-41.846,0-75.888,34.045-75.888,75.891v460.22c0,41.847,34.043,75.891,75.891,75.891
			h354.817c7.511,0,13.602-6.089,13.602-13.602c0-0.288-0.026-0.57-0.043-0.854c0.018-0.284,0.043-0.565,0.043-0.854V138.18V13.602
			C618.154,6.089,612.063,0,604.553,0z M236.134,582.853c-20.246-5.904-35.085-24.615-35.085-46.74V134.047
			c9.881,8.285,21.895,14.092,35.085,16.489V582.853z M249.735,124.577c-26.846,0-48.687-21.842-48.687-48.687
			c0-26.845,21.842-48.687,48.687-48.687h296.663c-11.058,13.188-17.733,30.17-17.733,48.687s6.676,35.499,17.733,48.687h-30.25
			h-76.104H249.735z M502.544,151.781v79.801l-16.242-12.094c-4.823-3.592-11.432-3.59-16.255,0.006l-16.404,12.233v-79.946H502.544
			z M590.952,584.797H263.336V151.781h163.103v107.056c0,5.146,2.903,9.851,7.503,12.158c1.929,0.968,4.018,1.444,6.098,1.444
			c2.878,0,5.738-0.913,8.134-2.699l30.012-22.381l29.838,22.219c4.126,3.073,9.633,3.554,14.228,1.245
			c4.598-2.308,7.498-7.012,7.498-12.155V151.78h61.203V584.797z M590.952,122.631c-20.247-5.902-35.087-24.615-35.087-46.742
			s14.84-40.836,35.085-46.739v93.48H590.952z"/>
	</g>
</g>
<g>
	<g>
		<path fill="#22EEAA" d="M493.864,325.671H360.422c-7.513,0-13.602,6.089-13.602,13.601c0,7.515,6.092,13.602,13.602,13.602
			h133.442c7.512,0,13.602-6.088,13.602-13.602C507.466,331.76,501.375,325.671,493.864,325.671z"/>
	</g>
</g>
<g>
	<g>
		<path fill="#22EEAA" d="M531.876,410.907H322.411c-7.513,0-13.602,6.089-13.602,13.602s6.089,13.602,13.602,13.602h209.465
			c7.511,0,13.602-6.089,13.602-13.602S539.389,410.907,531.876,410.907z"/>
	</g>
</g>
</svg>
