<?xml version="1.0" encoding="utf-8"?>
<!-- Generator: Adobe Illustrator 13.0.0, SVG Export Plug-In . SVG Version: 6.00 Build 14948)  -->
<!DOCTYPE svg PUBLIC "-//W3C//DTD SVG 1.1//EN" "http://www.w3.org/Graphics/SVG/1.1/DTD/svg11.dtd">
<svg version="1.1" id="Layer_1" xmlns="http://www.w3.org/2000/svg" xmlns:xlink="http://www.w3.org/1999/xlink" x="0px" y="0px"
	 width="792px" height="612px" viewBox="0 0 792 612" enable-background="new 0 0 792 612" xml:space="preserve">
<g>
	<g>
		<path fill="#22EEAA" d="M158.513,198.608h-53.278c-8.177,0-14.805,6.628-14.805,14.805s6.628,14.805,14.805,14.805h53.277
			c8.178,0,14.806-6.628,14.806-14.805S166.69,198.608,158.513,198.608z"/>
	</g>
</g>
<g>
	<g>
		<path fill="#22EEAA" d="M686.765,198.608h-53.278c-8.176,0-14.805,6.628-14.805,14.805s6.629,14.805,14.805,14.805h53.278
			c8.176,0,14.805-6.628,14.805-14.805S694.94,198.608,686.765,198.608z"/>
	</g>
</g>
<g>
	<g>
		<path fill="#22EEAA" d="M219.509,389.902c-5.782-5.781-15.155-5.781-20.938,0l-38.752,38.752c-5.782,5.782-5.782,15.156,0,20.938
			c2.891,2.892,6.68,4.337,10.468,4.337s7.579-1.445,10.469-4.337l38.753-38.752C225.291,405.061,225.291,395.686,219.509,389.902z"
			/>
	</g>
</g>
<g>
	<g>
		<path fill="#22EEAA" d="M605.077,4.336c-5.782-5.782-15.154-5.782-20.938,0l-37.69,37.691c-5.781,5.782-5.781,15.157,0,20.938
			c2.893,2.889,6.682,4.335,10.47,4.335c3.79,0,7.577-1.446,10.469-4.336l37.689-37.689
			C610.858,19.492,610.858,10.117,605.077,4.336z"/>
	</g>
</g>
<g>
	<g>
		<path fill="#22EEAA" d="M245.531,42.006l-37.67-37.669c-5.782-5.779-15.157-5.779-20.938,0c-5.782,5.782-5.782,15.157,0,20.938
			l37.67,37.67c2.892,2.891,6.681,4.337,10.469,4.337s7.579-1.446,10.469-4.337C251.312,57.164,251.312,47.789,245.531,42.006z"/>
	</g>
</g>
<g>
	<g>
		<path fill="#22EEAA" d="M632.179,428.659l-38.608-38.612c-5.783-5.781-15.154-5.781-20.938,0.002
			c-5.782,5.781-5.782,15.156,0,20.937l38.61,38.61c2.891,2.892,6.681,4.336,10.468,4.336c3.791,0,7.577-1.446,10.469-4.336
			C637.961,443.815,637.961,434.44,632.179,428.659z"/>
	</g>
</g>
<g>
	<g>
		<path fill="#22EEAA" d="M396.001,40.206c-102.377,0-185.666,87.121-185.666,194.208c0,49.785,17.833,103.373,48.928,147.024
			c23.881,33.522,36.502,70.821,36.502,107.865v93.086c0,16.327,13.284,29.61,29.61,29.61h141.25c16.327,0,29.61-13.283,29.61-29.61
			v-93.086c0-37.043,12.621-74.343,36.5-107.865c31.096-43.649,48.93-97.239,48.93-147.024
			C581.664,127.327,498.375,40.206,396.001,40.206z M466.624,582.392h-141.25v-19.365h70.625c8.178,0,14.807-6.628,14.807-14.805
			c0-8.178-6.629-14.806-14.807-14.806h-70.625v-19.364h141.253l0.017,68.338C466.643,582.392,466.637,582.392,466.624,582.392z
			 M375.238,306.17l-19.8-42.299h81.122l-19.797,42.299c-0.779,1.666-1.242,3.461-1.365,5.295l-11.481,172.976h-15.834
			l-11.481-172.976C376.479,309.632,376.016,307.836,375.238,306.17z M508.619,364.26c-26.444,37.121-40.89,78.571-41.935,120.182
			h-33.091l11.165-168.24l28.485-60.859c2.147-4.585,1.802-9.951-0.916-14.223c-2.718-4.271-7.43-6.859-12.492-6.859H332.162
			c-5.063,0-9.774,2.588-12.492,6.859c-2.717,4.271-3.063,9.637-0.917,14.222L347.24,316.2l11.165,168.24h-33.094
			c-1.044-41.611-15.488-83.061-41.934-120.183c-27.198-38.181-43.436-86.721-43.436-129.845
			c0-90.761,70.006-164.598,156.055-164.598s156.055,73.837,156.055,164.598C552.055,277.539,535.817,326.08,508.619,364.26z"/>
	</g>
</g>
</svg>
