<?xml version="1.0" encoding="utf-8"?>
<!-- Generator: Adobe Illustrator 13.0.0, SVG Export Plug-In . SVG Version: 6.00 Build 14948)  -->
<!DOCTYPE svg PUBLIC "-//W3C//DTD SVG 1.1//EN" "http://www.w3.org/Graphics/SVG/1.1/DTD/svg11.dtd">
<svg version="1.1" id="Layer_1" xmlns="http://www.w3.org/2000/svg" xmlns:xlink="http://www.w3.org/1999/xlink" x="0px" y="0px"
	 width="792px" height="612px" viewBox="0 0 792 612" enable-background="new 0 0 792 612" xml:space="preserve">
<g>
	<g>
		<path fill="#22EEAA" d="M483.071,440.751c-6.435-3.866-13.038-7.754-19.643-11.564c1.553-13.232,1.557-26.617,0.007-39.823
			c6.63-3.824,13.23-7.709,19.634-11.56c10.781-6.479,15.275-20.148,10.451-31.799c0,0,0,0-0.001-0.001l-14.07-33.969
			c-4.825-11.647-17.663-18.139-29.874-15.097c-7.257,1.806-14.671,3.727-22.06,5.708c-8.249-10.438-17.715-19.9-28.165-28.154
			c1.981-7.389,3.903-14.808,5.711-22.066c3.042-12.206-3.448-25.048-15.096-29.874l-33.968-14.07
			c-11.647-4.827-25.32-0.336-31.802,10.448c-3.859,6.423-7.748,13.028-11.563,19.643c-13.229-1.553-26.611-1.556-39.823-0.008
			c-3.828-6.635-7.713-13.237-11.559-19.634c-6.483-10.782-20.153-15.274-31.801-10.448l-33.969,14.07
			c-11.645,4.824-18.138,17.668-15.096,29.874c1.811,7.273,3.731,14.689,5.709,22.059c-10.436,8.247-19.901,17.715-28.153,28.166
			c-7.406-1.988-14.824-3.908-22.069-5.712c-12.209-3.044-25.049,3.452-29.875,15.098l-14.067,33.968
			c-4.823,11.648-0.33,25.318,10.449,31.797c6.425,3.861,13.029,7.748,19.643,11.564c-1.552,13.228-1.555,26.61-0.007,39.823
			c-6.62,3.819-13.22,7.705-19.638,11.562c-10.779,6.479-15.272,20.149-10.448,31.799L106,506.518
			c4.824,11.646,17.661,18.14,29.875,15.097c7.248-1.805,14.664-3.725,22.057-5.709c8.249,10.437,17.714,19.898,28.165,28.153
			c-1.984,7.397-3.905,14.815-5.711,22.066c-3.042,12.205,3.449,25.049,15.096,29.873l33.97,14.071
			c3.156,1.307,6.458,1.931,9.726,1.931c8.8,0,17.349-4.517,22.079-12.378c3.831-6.374,7.717-12.976,11.563-19.641
			c13.226,1.55,26.612,1.553,39.823,0.007c3.8,6.589,7.686,13.189,11.559,19.636c6.48,10.781,20.15,15.272,31.801,10.448
			l33.969-14.07c11.645-4.824,18.138-17.668,15.096-29.873c-1.797-7.212-3.716-14.627-5.709-22.06
			c10.434-8.247,19.899-17.714,28.154-28.164c7.385,1.98,14.803,3.9,22.065,5.71c12.206,3.045,25.049-3.447,29.875-15.097
			l14.069-33.97C498.344,460.9,493.851,447.229,483.071,440.751z M454.709,494.661c-6.977-1.748-14.089-3.596-21.16-5.501
			c-10.013-2.693-20.578,0.827-26.918,8.974c-7.286,9.358-15.72,17.793-25.063,25.069c-8.136,6.337-11.651,16.898-8.956,26.905
			c1.916,7.116,3.763,14.224,5.5,21.151l-31.225,12.933c-3.714-6.196-7.433-12.528-11.067-18.845
			c-5.172-8.981-15.126-13.958-25.359-12.691c-11.751,1.46-23.679,1.458-35.446-0.006c-10.262-1.274-20.208,3.703-25.379,12.687
			c-3.679,6.388-7.399,12.724-11.072,18.854l-31.224-12.934c1.747-6.965,3.595-14.076,5.502-21.158
			c2.696-10.011-0.827-20.577-8.973-26.919c-9.359-7.285-17.792-15.717-25.069-25.06c-6.335-8.139-16.896-11.652-26.906-8.959
			c-7.08,1.907-14.188,3.755-21.151,5.5l-12.934-31.223c6.168-3.698,12.502-7.417,18.844-11.068
			c8.983-5.173,13.965-15.125,12.693-25.358c-1.462-11.753-1.458-23.68,0.004-35.447c1.276-10.244-3.702-20.207-12.689-25.38
			c-6.34-3.65-12.675-7.371-18.853-11.075l12.933-31.223c6.957,1.744,14.066,3.593,21.16,5.501
			c10.007,2.697,20.574-0.827,26.918-8.973c7.285-9.359,15.718-17.794,25.06-25.069c8.138-6.336,11.653-16.899,8.958-26.909
			c-1.9-7.057-3.749-14.165-5.5-21.15l31.224-12.932c3.686,6.151,7.406,12.484,11.067,18.844
			c5.173,8.983,15.136,13.972,25.359,12.692c11.747-1.462,23.672-1.462,35.449,0.006c10.25,1.276,20.207-3.708,25.378-12.69
			c3.649-6.34,7.37-12.675,11.071-18.852l31.224,12.932c-1.747,6.972-3.596,14.083-5.502,21.161
			c-2.695,10.01,0.827,20.576,8.974,26.917c9.357,7.285,17.792,15.717,25.069,25.059c6.335,8.137,16.893,11.652,26.907,8.958
			c7.075-1.905,14.183-3.753,21.15-5.499l12.932,31.223c-6.159,3.691-12.492,7.41-18.844,11.068
			c-8.983,5.172-13.967,15.125-12.693,25.359c1.462,11.746,1.459,23.675-0.006,35.449c-1.274,10.245,3.706,20.206,12.69,25.378
			c6.33,3.645,12.666,7.364,18.853,11.072L454.709,494.661z"/>
	</g>
</g>
<g>
	<g>
		<path fill="#22EEAA" d="M378.981,373.549c0,0,0,0-0.002-0.002c-19.698-47.561-74.415-70.227-121.982-50.527
			c-47.559,19.701-70.227,74.423-50.526,121.983c9.542,23.041,27.489,40.983,50.527,50.528c11.52,4.771,23.623,7.156,35.727,7.156
			c12.104,0,24.208-2.386,35.729-7.156C376.014,475.83,398.68,421.109,378.981,373.549z M317.97,470.222
			c-16.277,6.742-34.206,6.741-50.488,0c-16.278-6.743-28.957-19.423-35.701-35.702c-13.922-33.604,2.095-72.271,35.702-86.189
			c8.229-3.41,16.759-5.023,25.158-5.023c25.899,0,50.52,15.348,61.033,40.725C367.592,417.636,351.575,456.301,317.97,470.222z"/>
	</g>
</g>
<g>
	<g>
		<path fill="#22EEAA" d="M683.536,120.65c-4.729-0.708-9.585-1.395-14.477-2.047c-2.465-8.196-5.757-16.143-9.818-23.69
			c2.993-3.915,5.943-7.836,8.794-11.689c6.329-8.56,5.414-20.699-2.128-28.237l-18.896-18.893
			c-7.541-7.542-19.681-8.457-28.237-2.125c-3.866,2.86-7.787,5.809-11.689,8.792c-7.546-4.062-15.491-7.354-23.689-9.819
			c-0.654-4.891-1.339-9.748-2.047-14.475C579.774,7.939,570.544,0,559.88,0h-26.723c-10.664,0-19.895,7.939-21.469,18.464
			c-0.707,4.725-1.393,9.583-2.047,14.476c-8.198,2.466-16.145,5.758-23.689,9.819c-3.9-2.983-7.823-5.934-11.688-8.792
			c-8.56-6.332-20.699-5.417-28.238,2.124l-18.894,18.892c-7.542,7.54-8.459,19.681-2.127,28.241
			c2.848,3.852,5.798,7.774,8.79,11.688c-4.06,7.546-7.353,15.491-9.818,23.69c-4.89,0.654-9.748,1.34-14.476,2.047
			c-10.526,1.576-18.466,10.805-18.466,21.47v26.721c0,10.665,7.937,19.895,18.464,21.47c4.729,0.708,9.585,1.395,14.477,2.048
			c2.466,8.197,5.758,16.143,9.818,23.69c-2.99,3.911-5.939,7.832-8.794,11.689c-6.328,8.557-5.414,20.699,2.127,28.235
			l18.896,18.896c7.54,7.542,19.68,8.456,28.238,2.125c3.866-2.858,7.786-5.809,11.688-8.791c7.549,4.062,15.495,7.354,23.691,9.818
			c0.651,4.89,1.339,9.748,2.047,14.477c1.575,10.526,10.806,18.465,21.47,18.465h26.723c10.664,0,19.895-7.937,21.469-18.466
			c0.706-4.729,1.393-9.585,2.047-14.476c8.197-2.464,16.143-5.758,23.689-9.82c3.9,2.984,7.823,5.934,11.688,8.793
			c8.558,6.332,20.699,5.417,28.238-2.124l18.896-18.893c7.541-7.54,8.457-19.681,2.125-28.241
			c-2.852-3.856-5.802-7.779-8.79-11.687c4.06-7.546,7.353-15.49,9.818-23.69c4.89-0.654,9.748-1.34,14.476-2.047
			c10.526-1.576,18.466-10.805,18.466-21.47v-26.721C702,131.456,694.062,122.226,683.536,120.65z M675.976,165.123
			c-4.294,0.623-8.675,1.228-13.069,1.8c-8.693,1.135-15.811,7.305-18.127,15.717c-2.22,8.055-5.441,15.829-9.573,23.103
			c-4.316,7.594-3.65,16.991,1.696,23.944c2.695,3.505,5.369,7.032,7.972,10.518l-13.632,13.633
			c-3.496-2.609-7.023-5.282-10.521-7.972c-6.949-5.349-16.349-6.01-23.944-1.699c-7.275,4.133-15.049,7.355-23.1,9.575
			c-8.417,2.319-14.587,9.436-15.718,18.127c-0.572,4.395-1.177,8.777-1.801,13.071h-19.28c-0.622-4.294-1.226-8.675-1.8-13.066
			c-1.135-8.695-7.304-15.812-15.719-18.131c-8.053-2.218-15.823-5.44-23.102-9.573c-7.595-4.315-16.995-3.651-23.943,1.696
			c-3.498,2.69-7.023,5.362-10.522,7.972l-13.631-13.633c2.603-3.489,5.274-7.014,7.974-10.522
			c5.343-6.951,6.009-16.348,1.694-23.942c-4.133-7.274-7.354-15.049-9.573-23.102c-2.318-8.415-9.434-14.584-18.127-15.719
			c-4.396-0.574-8.777-1.176-13.071-1.801v-19.278c4.294-0.623,8.675-1.228,13.069-1.8c8.693-1.134,15.811-7.305,18.127-15.717
			c2.22-8.054,5.44-15.827,9.573-23.104c4.316-7.594,3.65-16.992-1.693-23.943c-2.7-3.51-5.373-7.036-7.973-10.519l13.631-13.632
			c3.497,2.609,7.022,5.282,10.519,7.97c6.947,5.349,16.347,6.016,23.947,1.7c7.273-4.132,15.048-7.354,23.1-9.574
			c8.417-2.319,14.588-9.436,15.719-18.127c0.573-4.395,1.178-8.776,1.801-13.07h19.28c0.623,4.292,1.227,8.673,1.799,13.066
			c1.135,8.695,7.305,15.812,15.719,18.129c8.054,2.22,15.828,5.442,23.103,9.575c7.597,4.316,16.995,3.646,23.942-1.698
			c3.499-2.689,7.023-5.362,10.522-7.971l13.631,13.632c-2.6,3.484-5.272,7.012-7.973,10.522c-5.344,6.95-6.009,16.347-1.695,23.941
			c4.132,7.277,7.354,15.051,9.573,23.103c2.317,8.415,9.433,14.584,18.126,15.718c4.396,0.574,8.777,1.177,13.071,1.801V165.123
			L675.976,165.123z"/>
	</g>
</g>
<g>
	<g>
		<path fill="#22EEAA" d="M546.519,100.018c-30.582,0-55.464,24.881-55.464,55.464c0,30.584,24.881,55.465,55.464,55.465
			s55.464-24.88,55.464-55.465C601.982,124.898,577.102,100.018,546.519,100.018z M546.519,186.291
			c-16.986,0-30.81-13.821-30.81-30.81c0-16.989,13.822-30.81,30.81-30.81s30.808,13.822,30.81,30.81
			C577.328,172.469,563.506,186.291,546.519,186.291z"/>
	</g>
</g>
</svg>
