<?xml version="1.0" encoding="utf-8"?>
<!-- Generator: Adobe Illustrator 13.0.0, SVG Export Plug-In . SVG Version: 6.00 Build 14948)  -->
<!DOCTYPE svg PUBLIC "-//W3C//DTD SVG 1.1//EN" "http://www.w3.org/Graphics/SVG/1.1/DTD/svg11.dtd">
<svg version="1.1" id="Layer_1" xmlns="http://www.w3.org/2000/svg" xmlns:xlink="http://www.w3.org/1999/xlink" x="0px" y="0px"
	 width="792px" height="612px" viewBox="0 0 792 612" enable-background="new 0 0 792 612" xml:space="preserve">
<g>
	<g>
		<path fill="#22EEAA" d="M701.999,306c0-12.934-7.187-24.564-18.76-30.358l-45.567-22.784l45.567-22.783
			c0.002-0.001,0.005-0.002,0.005-0.002c11.571-5.791,18.757-17.423,18.757-30.357c0-12.932-7.188-24.563-18.759-30.357
			L425.99,40.736c-18.781-9.382-41.203-9.382-59.987,0.001L108.756,169.365C97.188,175.153,90,186.784,90,199.717
			c0,12.935,7.186,24.565,18.759,30.358l45.566,22.783l-45.572,22.786C97.186,281.436,90,293.066,90,306
			c0,12.935,7.186,24.565,18.759,30.357l45.566,22.784l-45.563,22.782C97.196,387.703,90.005,399.329,90,412.265
			c-0.005,12.943,7.182,24.581,18.759,30.375l257.249,128.625c9.391,4.692,19.688,7.036,29.99,7.036
			c10.303,0,20.604-2.347,29.996-7.037l257.249-128.625c11.573-5.791,18.761-17.43,18.756-30.373
			c-0.005-12.936-7.196-24.563-18.76-30.338l-45.567-22.783l45.572-22.787C694.813,330.565,701.999,318.936,701.999,306z
			 M121.347,204.913c-2.796-1.399-3.212-3.856-3.212-5.195c0-1.338,0.418-3.795,3.207-5.191l257.241-128.62
			c5.454-2.726,11.437-4.086,17.419-4.086c5.98,0,11.961,1.362,17.412,4.084l257.239,128.619c2.793,1.398,3.212,3.855,3.212,5.193
			c0,1.339-0.416,3.795-3.212,5.195L413.418,333.529c-10.908,5.449-23.93,5.449-34.831,0.002L121.347,204.913z M670.661,407.093
			c2.785,1.392,3.202,3.843,3.202,5.183c0.002,1.343-0.416,3.804-3.207,5.2l-257.24,128.62c-10.907,5.448-23.929,5.449-34.83,0.001
			l-257.239-128.62c-2.796-1.399-3.213-3.859-3.212-5.202c0-1.338,0.416-3.79,3.207-5.184l64.441-32.222l180.224,90.111
			c9.391,4.691,19.688,7.035,29.989,7.035c10.303,0,20.604-2.346,29.996-7.036l180.22-90.11L670.661,407.093z M670.655,311.193
			l-257.239,128.62c-10.907,5.448-23.929,5.449-34.83,0.001L121.347,311.195c-2.796-1.398-3.212-3.855-3.212-5.193
			c0-1.341,0.416-3.795,3.207-5.192l64.441-32.221l180.224,90.111c9.39,4.691,19.689,7.035,29.989,7.035s20.604-2.345,29.995-7.037
			l180.222-90.11l64.437,32.218c2.796,1.4,3.212,3.855,3.212,5.195C673.863,307.34,673.446,309.796,670.655,311.193z"/>
	</g>
</g>
</svg>
