<?xml version="1.0" encoding="utf-8"?>
<!-- Generator: Adobe Illustrator 13.0.0, SVG Export Plug-In . SVG Version: 6.00 Build 14948)  -->
<!DOCTYPE svg PUBLIC "-//W3C//DTD SVG 1.1//EN" "http://www.w3.org/Graphics/SVG/1.1/DTD/svg11.dtd">
<svg version="1.1" id="Layer_1" xmlns="http://www.w3.org/2000/svg" xmlns:xlink="http://www.w3.org/1999/xlink" x="0px" y="0px"
	 width="792px" height="612px" viewBox="0 0 792 612" enable-background="new 0 0 792 612" xml:space="preserve">
<g>
	<g>
		<path fill="#22EEAA" d="M595.435,158.273H196.567c-7.273,0-13.171,5.896-13.171,13.171v198.929
			c0,7.275,5.897,13.172,13.171,13.172c7.274,0,13.171-5.896,13.171-13.172V184.614h372.524v185.758l0,0
			c0,7.274,5.897,13.171,13.172,13.171c7.273,0,13.171-5.896,13.171-13.171V171.443
			C608.604,164.169,602.706,158.273,595.435,158.273z"/>
	</g>
</g>
<g>
	<g>
		<path fill="#22EEAA" d="M690.147,417.406h-24.259V140.805c0-21.953-17.86-39.813-39.813-39.813H165.926
			c-21.954,0-39.813,17.86-39.813,39.813v276.602h-24.259c-6.547,0-11.854,5.306-11.854,11.854v23.27
			c0,32.246,26.233,58.479,58.479,58.479h495.041c32.246,0,58.479-26.233,58.479-58.479v-23.27
			C702.001,422.712,696.695,417.406,690.147,417.406z M152.454,140.805c0-7.428,6.044-13.473,13.472-13.473h460.146
			c7.431,0,13.473,6.043,13.473,13.473v276.602H461.204c-0.841-0.027-1.707,0.044-2.567,0.211c-5.58,1.073-9.612,5.957-9.612,11.639
			c0,10.006-8.14,18.145-18.144,18.145h-69.76c-10.006,0-18.144-8.14-18.144-18.145c0-6.638-5.5-11.994-12.129-11.852H152.454
			V140.805z M678.293,452.53L678.293,452.53c0,19.175-15.6,34.772-34.771,34.772H148.479c-19.173,0-34.771-15.598-34.771-34.772
			v-11.416h207.271c5.124,17.321,21.181,29.995,40.141,29.995h69.76c18.96,0,35.017-12.675,40.143-29.995h207.272v11.416H678.293z"
			/>
	</g>
</g>
<g>
	<g>
		<path fill="#22EEAA" d="M415.521,234.831c-5.145-5.144-13.482-5.144-18.628,0l-82.832,82.835c-5.144,5.143-5.144,13.482,0,18.627
			c2.572,2.572,5.943,3.856,9.313,3.856c3.371,0,6.741-1.287,9.313-3.856l82.834-82.835
			C420.665,248.315,420.665,239.975,415.521,234.831z"/>
	</g>
</g>
<g>
	<g>
		<path fill="#22EEAA" d="M464.617,282.834c-5.145-5.143-13.481-5.143-18.626,0l-32.998,32.998c-5.144,5.144-5.144,13.483,0,18.628
			c2.572,2.572,5.943,3.857,9.313,3.857c3.372,0,6.74-1.285,9.313-3.857l32.998-32.998
			C469.761,296.318,469.761,287.979,464.617,282.834z"/>
	</g>
</g>
</svg>
