<?xml version="1.0" encoding="utf-8"?>
<!-- Generator: Adobe Illustrator 13.0.0, SVG Export Plug-In . SVG Version: 6.00 Build 14948)  -->
<!DOCTYPE svg PUBLIC "-//W3C//DTD SVG 1.1//EN" "http://www.w3.org/Graphics/SVG/1.1/DTD/svg11.dtd">
<svg version="1.1" id="Capa_1" xmlns="http://www.w3.org/2000/svg" xmlns:xlink="http://www.w3.org/1999/xlink" x="0px" y="0px"
	 width="792px" height="612px" viewBox="0 0 792 612" enable-background="new 0 0 792 612" xml:space="preserve">
<g>
	<path fill="#22EEAA" d="M689.544,0c-6.877,0-12.454,5.577-12.454,12.454v95.465H151.068c-6.876,0-12.454,5.577-12.454,12.454
		c0,6.876,5.577,12.454,12.454,12.454H677.09v454.265H539.567V200.139c0-6.876-5.577-12.454-12.454-12.454
		s-12.454,5.578-12.454,12.454V587.09H114.908V24.908H611.87c6.876,0,12.454-5.577,12.454-12.454S618.746,0,611.87,0H102.454
		C95.577,0,90,5.577,90,12.454v587.092C90,606.423,95.577,612,102.454,612h587.09c6.877,0,12.454-5.577,12.454-12.454V12.454
		C701.998,5.577,696.423,0,689.544,0z"/>
	<path fill="#22EEAA" d="M562.226,213.706h91.33c6.877,0,12.454-5.578,12.454-12.454c0-6.877-5.577-12.454-12.454-12.454h-91.33
		c-6.877,0-12.454,5.577-12.454,12.454C549.771,208.128,555.349,213.706,562.226,213.706z"/>
	<path fill="#22EEAA" d="M562.226,340.322h91.33c6.877,0,12.454-5.577,12.454-12.454c0-6.876-5.577-12.454-12.454-12.454h-91.33
		c-6.877,0-12.454,5.578-12.454,12.454C549.771,334.745,555.349,340.322,562.226,340.322z"/>
	<path fill="#22EEAA" d="M562.226,277.014h91.33c6.877,0,12.454-5.577,12.454-12.454s-5.577-12.454-12.454-12.454h-91.33
		c-6.877,0-12.454,5.577-12.454,12.454S555.349,277.014,562.226,277.014z"/>
	<path fill="#22EEAA" d="M562.226,403.631h91.33c6.877,0,12.454-5.577,12.454-12.454s-5.577-12.454-12.454-12.454h-91.33
		c-6.877,0-12.454,5.577-12.454,12.454S555.349,403.631,562.226,403.631z"/>
	<path fill="#22EEAA" d="M562.226,530.247h91.33c6.877,0,12.454-5.577,12.454-12.454s-5.577-12.454-12.454-12.454h-91.33
		c-6.877,0-12.454,5.577-12.454,12.454S555.349,530.247,562.226,530.247z"/>
	<path fill="#22EEAA" d="M562.226,466.939h91.33c6.877,0,12.454-5.578,12.454-12.454c0-6.877-5.577-12.454-12.454-12.454h-91.33
		c-6.877,0-12.454,5.577-12.454,12.454C549.771,461.361,555.349,466.939,562.226,466.939z"/>
	<path fill="#22EEAA" d="M147.457,57.602c-2.304,2.325-3.632,5.521-3.632,8.822c0,3.28,1.328,6.476,3.632,8.801
		c2.325,2.304,5.521,3.653,8.821,3.653c3.259,0,6.477-1.349,8.801-3.653c2.302-2.325,3.653-5.521,3.653-8.801
		c0-3.3-1.349-6.497-3.653-8.822c-2.325-2.304-5.521-3.632-8.801-3.632C152.978,53.97,149.782,55.298,147.457,57.602z"/>
	<path fill="#22EEAA" d="M188.971,57.602c-2.325,2.325-3.653,5.542-3.653,8.801c0,3.279,1.329,6.497,3.653,8.821
		c2.304,2.304,5.521,3.633,8.801,3.633c3.279,0,6.497-1.329,8.801-3.633c2.323-2.325,3.653-5.542,3.653-8.821
		c0-3.259-1.331-6.477-3.653-8.801c-2.325-2.325-5.521-3.653-8.801-3.653C194.492,53.949,191.295,55.277,188.971,57.602z"/>
	<path fill="#22EEAA" d="M230.463,57.602c-2.304,2.325-3.653,5.542-3.653,8.822c0,3.28,1.347,6.476,3.653,8.801
		c2.325,2.325,5.542,3.653,8.822,3.653c3.257,0,6.476-1.329,8.801-3.653c2.323-2.325,3.653-5.542,3.653-8.801
		c0-3.279-1.331-6.497-3.653-8.822c-2.325-2.304-5.544-3.653-8.801-3.653C236.005,53.949,232.79,55.298,230.463,57.602z"/>
</g>
</svg>
